<mxfile modified="2020-01-13T16:28:55.300Z" host="www.draw.io" agent="Mozilla/5.0 (Windows NT 10.0; Win64; x64) AppleWebKit/537.36 (KHTML, like Gecko) Chrome/79.0.3945.88 Safari/537.36" etag="e5l0QgGnbEKd-RgREB3d" version="12.5.1" type="github">
  <diagram id="vyYMURlmA4du_YMqddq6" name="Page-1">
    <mxGraphModel dx="772" dy="1603" grid="1" gridSize="10" guides="1" tooltips="1" connect="1" arrows="1" fold="1" page="1" pageScale="1" pageWidth="850" pageHeight="1100" math="0" shadow="0">
      <root>
        <mxCell id="0"/>
        <mxCell id="1" parent="0"/>
        <mxCell id="rx76BKU7CpPrEIFOv-aw-43" value="" style="rounded=0;whiteSpace=wrap;html=1;" parent="1" vertex="1">
          <mxGeometry x="150" y="-90" width="240" height="1000" as="geometry"/>
        </mxCell>
        <mxCell id="1KPXvjAnRe_1vTXe2ojk-2" value="" style="ellipse;whiteSpace=wrap;html=1;" parent="1" vertex="1">
          <mxGeometry x="230" y="504.5" width="120" height="61" as="geometry"/>
        </mxCell>
        <mxCell id="1KPXvjAnRe_1vTXe2ojk-3" value="" style="ellipse;whiteSpace=wrap;html=1;" parent="1" vertex="1">
          <mxGeometry x="230" y="420.5" width="120" height="61" as="geometry"/>
        </mxCell>
        <mxCell id="1KPXvjAnRe_1vTXe2ojk-4" value="" style="ellipse;whiteSpace=wrap;html=1;" parent="1" vertex="1">
          <mxGeometry x="230" y="350" width="120" height="56" as="geometry"/>
        </mxCell>
        <mxCell id="1KPXvjAnRe_1vTXe2ojk-5" value="" style="ellipse;whiteSpace=wrap;html=1;" parent="1" vertex="1">
          <mxGeometry x="230" y="199.5" width="120" height="61" as="geometry"/>
        </mxCell>
        <mxCell id="1KPXvjAnRe_1vTXe2ojk-20" style="edgeStyle=orthogonalEdgeStyle;rounded=0;orthogonalLoop=1;jettySize=auto;html=1;exitX=1;exitY=0.5;exitDx=0;exitDy=0;entryX=0;entryY=0.3333333333333333;entryDx=0;entryDy=0;entryPerimeter=0;" parent="1" source="1KPXvjAnRe_1vTXe2ojk-6" target="rx76BKU7CpPrEIFOv-aw-35" edge="1">
          <mxGeometry relative="1" as="geometry"/>
        </mxCell>
        <mxCell id="1KPXvjAnRe_1vTXe2ojk-6" value="" style="ellipse;whiteSpace=wrap;html=1;" parent="1" vertex="1">
          <mxGeometry x="230" y="279.5" width="120" height="61" as="geometry"/>
        </mxCell>
        <mxCell id="1KPXvjAnRe_1vTXe2ojk-7" value="" style="ellipse;whiteSpace=wrap;html=1;" parent="1" vertex="1">
          <mxGeometry x="230" y="117" width="120" height="61" as="geometry"/>
        </mxCell>
        <mxCell id="1KPXvjAnRe_1vTXe2ojk-9" value="" style="ellipse;whiteSpace=wrap;html=1;" parent="1" vertex="1">
          <mxGeometry x="230" y="-40.5" width="120" height="61" as="geometry"/>
        </mxCell>
        <mxCell id="1KPXvjAnRe_1vTXe2ojk-10" value="" style="ellipse;whiteSpace=wrap;html=1;" parent="1" vertex="1">
          <mxGeometry x="230" y="39.5" width="120" height="61" as="geometry"/>
        </mxCell>
        <mxCell id="1KPXvjAnRe_1vTXe2ojk-11" style="edgeStyle=orthogonalEdgeStyle;rounded=0;orthogonalLoop=1;jettySize=auto;html=1;exitX=1;exitY=0.3333333333333333;exitDx=0;exitDy=0;exitPerimeter=0;entryX=0;entryY=0.5;entryDx=0;entryDy=0;" parent="1" source="rx76BKU7CpPrEIFOv-aw-1" target="1KPXvjAnRe_1vTXe2ojk-9" edge="1">
          <mxGeometry relative="1" as="geometry"/>
        </mxCell>
        <mxCell id="1KPXvjAnRe_1vTXe2ojk-12" style="edgeStyle=orthogonalEdgeStyle;rounded=0;orthogonalLoop=1;jettySize=auto;html=1;exitX=1;exitY=0.3333333333333333;exitDx=0;exitDy=0;exitPerimeter=0;entryX=0;entryY=0.5;entryDx=0;entryDy=0;" parent="1" source="rx76BKU7CpPrEIFOv-aw-1" target="1KPXvjAnRe_1vTXe2ojk-10" edge="1">
          <mxGeometry relative="1" as="geometry"/>
        </mxCell>
        <mxCell id="1KPXvjAnRe_1vTXe2ojk-14" style="edgeStyle=orthogonalEdgeStyle;rounded=0;orthogonalLoop=1;jettySize=auto;html=1;exitX=1;exitY=0.3333333333333333;exitDx=0;exitDy=0;exitPerimeter=0;entryX=0;entryY=0.5;entryDx=0;entryDy=0;" parent="1" source="rx76BKU7CpPrEIFOv-aw-1" target="1KPXvjAnRe_1vTXe2ojk-7" edge="1">
          <mxGeometry relative="1" as="geometry"/>
        </mxCell>
        <mxCell id="1KPXvjAnRe_1vTXe2ojk-15" style="edgeStyle=orthogonalEdgeStyle;rounded=0;orthogonalLoop=1;jettySize=auto;html=1;exitX=1;exitY=0.3333333333333333;exitDx=0;exitDy=0;exitPerimeter=0;entryX=0;entryY=0.5;entryDx=0;entryDy=0;" parent="1" source="rx76BKU7CpPrEIFOv-aw-1" target="1KPXvjAnRe_1vTXe2ojk-5" edge="1">
          <mxGeometry relative="1" as="geometry"/>
        </mxCell>
        <mxCell id="1KPXvjAnRe_1vTXe2ojk-16" style="edgeStyle=orthogonalEdgeStyle;rounded=0;orthogonalLoop=1;jettySize=auto;html=1;exitX=1;exitY=0.3333333333333333;exitDx=0;exitDy=0;exitPerimeter=0;entryX=0;entryY=0.5;entryDx=0;entryDy=0;" parent="1" source="rx76BKU7CpPrEIFOv-aw-1" target="1KPXvjAnRe_1vTXe2ojk-6" edge="1">
          <mxGeometry relative="1" as="geometry"/>
        </mxCell>
        <mxCell id="1KPXvjAnRe_1vTXe2ojk-17" style="edgeStyle=orthogonalEdgeStyle;rounded=0;orthogonalLoop=1;jettySize=auto;html=1;exitX=1;exitY=0.3333333333333333;exitDx=0;exitDy=0;exitPerimeter=0;entryX=0;entryY=0.5;entryDx=0;entryDy=0;" parent="1" source="rx76BKU7CpPrEIFOv-aw-1" target="1KPXvjAnRe_1vTXe2ojk-2" edge="1">
          <mxGeometry relative="1" as="geometry"/>
        </mxCell>
        <mxCell id="1KPXvjAnRe_1vTXe2ojk-18" style="edgeStyle=orthogonalEdgeStyle;rounded=0;orthogonalLoop=1;jettySize=auto;html=1;exitX=1;exitY=0.3333333333333333;exitDx=0;exitDy=0;exitPerimeter=0;entryX=0;entryY=0.5;entryDx=0;entryDy=0;" parent="1" source="rx76BKU7CpPrEIFOv-aw-1" target="1KPXvjAnRe_1vTXe2ojk-4" edge="1">
          <mxGeometry relative="1" as="geometry"/>
        </mxCell>
        <mxCell id="1KPXvjAnRe_1vTXe2ojk-19" style="edgeStyle=orthogonalEdgeStyle;rounded=0;orthogonalLoop=1;jettySize=auto;html=1;exitX=1;exitY=0.3333333333333333;exitDx=0;exitDy=0;exitPerimeter=0;entryX=0;entryY=0.5;entryDx=0;entryDy=0;" parent="1" source="rx76BKU7CpPrEIFOv-aw-1" target="1KPXvjAnRe_1vTXe2ojk-3" edge="1">
          <mxGeometry relative="1" as="geometry"/>
        </mxCell>
        <mxCell id="4Zeao0PZxR2K6rH3QbGb-27" style="edgeStyle=orthogonalEdgeStyle;rounded=0;orthogonalLoop=1;jettySize=auto;html=1;exitX=1;exitY=0.3333333333333333;exitDx=0;exitDy=0;exitPerimeter=0;entryX=0;entryY=0.5;entryDx=0;entryDy=0;" edge="1" parent="1" source="rx76BKU7CpPrEIFOv-aw-1" target="4Zeao0PZxR2K6rH3QbGb-5">
          <mxGeometry relative="1" as="geometry"/>
        </mxCell>
        <mxCell id="4Zeao0PZxR2K6rH3QbGb-31" style="edgeStyle=orthogonalEdgeStyle;rounded=0;orthogonalLoop=1;jettySize=auto;html=1;exitX=1;exitY=0.3333333333333333;exitDx=0;exitDy=0;exitPerimeter=0;entryX=0;entryY=0.5;entryDx=0;entryDy=0;" edge="1" parent="1" source="rx76BKU7CpPrEIFOv-aw-1" target="4Zeao0PZxR2K6rH3QbGb-14">
          <mxGeometry relative="1" as="geometry"/>
        </mxCell>
        <mxCell id="4Zeao0PZxR2K6rH3QbGb-32" style="edgeStyle=orthogonalEdgeStyle;rounded=0;orthogonalLoop=1;jettySize=auto;html=1;exitX=1;exitY=0.3333333333333333;exitDx=0;exitDy=0;exitPerimeter=0;entryX=0;entryY=0.5;entryDx=0;entryDy=0;" edge="1" parent="1" source="rx76BKU7CpPrEIFOv-aw-1" target="4Zeao0PZxR2K6rH3QbGb-20">
          <mxGeometry relative="1" as="geometry"/>
        </mxCell>
        <mxCell id="4Zeao0PZxR2K6rH3QbGb-40" style="edgeStyle=orthogonalEdgeStyle;rounded=0;orthogonalLoop=1;jettySize=auto;html=1;exitX=1;exitY=0.3333333333333333;exitDx=0;exitDy=0;exitPerimeter=0;entryX=0;entryY=0.5;entryDx=0;entryDy=0;" edge="1" parent="1" source="rx76BKU7CpPrEIFOv-aw-1" target="4Zeao0PZxR2K6rH3QbGb-37">
          <mxGeometry relative="1" as="geometry"/>
        </mxCell>
        <object label="User" id="rx76BKU7CpPrEIFOv-aw-1">
          <mxCell style="shape=umlActor;verticalLabelPosition=bottom;labelBackgroundColor=#ffffff;verticalAlign=top;html=1;" parent="1" vertex="1">
            <mxGeometry x="70" y="345" width="40" height="90" as="geometry"/>
          </mxCell>
        </object>
        <mxCell id="rx76BKU7CpPrEIFOv-aw-17" value="login" style="text;html=1;strokeColor=none;fillColor=none;align=center;verticalAlign=middle;whiteSpace=wrap;rounded=0;" parent="1" vertex="1">
          <mxGeometry x="240" y="50" width="100" height="40" as="geometry"/>
        </mxCell>
        <mxCell id="rx76BKU7CpPrEIFOv-aw-18" value="view &lt;br&gt;cart&amp;nbsp;" style="text;html=1;strokeColor=none;fillColor=none;align=center;verticalAlign=middle;whiteSpace=wrap;rounded=0;" parent="1" vertex="1">
          <mxGeometry x="240" y="210" width="100" height="40" as="geometry"/>
        </mxCell>
        <mxCell id="rx76BKU7CpPrEIFOv-aw-19" value="select &lt;br&gt;product(s)&amp;nbsp;" style="text;html=1;strokeColor=none;fillColor=none;align=center;verticalAlign=middle;whiteSpace=wrap;rounded=0;" parent="1" vertex="1">
          <mxGeometry x="240" y="127.5" width="100" height="40" as="geometry"/>
        </mxCell>
        <mxCell id="rx76BKU7CpPrEIFOv-aw-20" value="pay&amp;nbsp; for product(s) to admin" style="text;html=1;strokeColor=none;fillColor=none;align=center;verticalAlign=middle;whiteSpace=wrap;rounded=0;" parent="1" vertex="1">
          <mxGeometry x="240" y="290" width="100" height="40" as="geometry"/>
        </mxCell>
        <mxCell id="4Zeao0PZxR2K6rH3QbGb-56" style="edgeStyle=orthogonalEdgeStyle;rounded=0;orthogonalLoop=1;jettySize=auto;html=1;exitX=0;exitY=0.3333333333333333;exitDx=0;exitDy=0;exitPerimeter=0;entryX=1;entryY=0.5;entryDx=0;entryDy=0;" edge="1" parent="1" source="rx76BKU7CpPrEIFOv-aw-35" target="1KPXvjAnRe_1vTXe2ojk-4">
          <mxGeometry relative="1" as="geometry"/>
        </mxCell>
        <object label="Payment service" id="rx76BKU7CpPrEIFOv-aw-35">
          <mxCell style="shape=umlActor;verticalLabelPosition=bottom;labelBackgroundColor=#ffffff;verticalAlign=top;html=1;" parent="1" vertex="1">
            <mxGeometry x="450" y="280" width="40" height="90" as="geometry"/>
          </mxCell>
        </object>
        <mxCell id="rx76BKU7CpPrEIFOv-aw-38" value="&lt;div&gt;&lt;span style=&quot;font-size: 12px&quot;&gt;Recieve Payment from admin (cancelled order )&lt;/span&gt;&lt;/div&gt;" style="text;html=1;strokeColor=none;fillColor=none;align=center;verticalAlign=middle;whiteSpace=wrap;rounded=0;" parent="1" vertex="1">
          <mxGeometry x="240" y="357.5" width="100" height="40" as="geometry"/>
        </mxCell>
        <mxCell id="rx76BKU7CpPrEIFOv-aw-40" value="cancel order" style="text;html=1;strokeColor=none;fillColor=none;align=center;verticalAlign=middle;whiteSpace=wrap;rounded=0;" parent="1" vertex="1">
          <mxGeometry x="240" y="432.5" width="100" height="40" as="geometry"/>
        </mxCell>
        <mxCell id="rx76BKU7CpPrEIFOv-aw-44" value="System" style="text;html=1;strokeColor=none;fillColor=none;align=center;verticalAlign=middle;whiteSpace=wrap;rounded=0;" parent="1" vertex="1">
          <mxGeometry x="260" y="-80" width="40" height="20" as="geometry"/>
        </mxCell>
        <mxCell id="Yjam4TegrEQKl0XN-Iuk-3" value="Feedback" style="text;html=1;strokeColor=none;fillColor=none;align=center;verticalAlign=middle;whiteSpace=wrap;rounded=0;" parent="1" vertex="1">
          <mxGeometry x="240" y="515" width="100" height="40" as="geometry"/>
        </mxCell>
        <mxCell id="9l-QCuOd9AUTyuNBc602-2" value="register" style="text;html=1;strokeColor=none;fillColor=none;align=center;verticalAlign=middle;whiteSpace=wrap;rounded=0;" parent="1" vertex="1">
          <mxGeometry x="240" y="-30" width="100" height="40" as="geometry"/>
        </mxCell>
        <mxCell id="4Zeao0PZxR2K6rH3QbGb-9" value="" style="group" vertex="1" connectable="0" parent="1">
          <mxGeometry x="230" y="580" width="120" height="61" as="geometry"/>
        </mxCell>
        <mxCell id="4Zeao0PZxR2K6rH3QbGb-5" value="" style="ellipse;whiteSpace=wrap;html=1;" vertex="1" parent="4Zeao0PZxR2K6rH3QbGb-9">
          <mxGeometry width="120" height="61" as="geometry"/>
        </mxCell>
        <mxCell id="4Zeao0PZxR2K6rH3QbGb-6" value="View&lt;br&gt;product(s)&amp;nbsp;" style="text;html=1;strokeColor=none;fillColor=none;align=center;verticalAlign=middle;whiteSpace=wrap;rounded=0;" vertex="1" parent="4Zeao0PZxR2K6rH3QbGb-9">
          <mxGeometry x="10" y="10.5" width="100" height="40" as="geometry"/>
        </mxCell>
        <mxCell id="4Zeao0PZxR2K6rH3QbGb-13" value="" style="group" vertex="1" connectable="0" parent="1">
          <mxGeometry x="230" y="660" width="120" height="61" as="geometry"/>
        </mxCell>
        <mxCell id="4Zeao0PZxR2K6rH3QbGb-14" value="" style="ellipse;whiteSpace=wrap;html=1;" vertex="1" parent="4Zeao0PZxR2K6rH3QbGb-13">
          <mxGeometry width="120" height="61" as="geometry"/>
        </mxCell>
        <mxCell id="4Zeao0PZxR2K6rH3QbGb-15" value="Edit cart&amp;nbsp;" style="text;html=1;strokeColor=none;fillColor=none;align=center;verticalAlign=middle;whiteSpace=wrap;rounded=0;" vertex="1" parent="4Zeao0PZxR2K6rH3QbGb-13">
          <mxGeometry x="10" y="10.5" width="100" height="40" as="geometry"/>
        </mxCell>
        <mxCell id="4Zeao0PZxR2K6rH3QbGb-19" value="" style="group" vertex="1" connectable="0" parent="1">
          <mxGeometry x="230" y="750" width="120" height="61" as="geometry"/>
        </mxCell>
        <mxCell id="4Zeao0PZxR2K6rH3QbGb-20" value="" style="ellipse;whiteSpace=wrap;html=1;" vertex="1" parent="4Zeao0PZxR2K6rH3QbGb-19">
          <mxGeometry width="120" height="61" as="geometry"/>
        </mxCell>
        <mxCell id="4Zeao0PZxR2K6rH3QbGb-21" value="Check status of product delivery" style="text;html=1;strokeColor=none;fillColor=none;align=center;verticalAlign=middle;whiteSpace=wrap;rounded=0;" vertex="1" parent="4Zeao0PZxR2K6rH3QbGb-19">
          <mxGeometry x="10" y="10.5" width="100" height="40" as="geometry"/>
        </mxCell>
        <mxCell id="4Zeao0PZxR2K6rH3QbGb-36" value="" style="group" vertex="1" connectable="0" parent="1">
          <mxGeometry x="230" y="830" width="120" height="61" as="geometry"/>
        </mxCell>
        <mxCell id="4Zeao0PZxR2K6rH3QbGb-37" value="" style="ellipse;whiteSpace=wrap;html=1;" vertex="1" parent="4Zeao0PZxR2K6rH3QbGb-36">
          <mxGeometry width="120" height="61" as="geometry"/>
        </mxCell>
        <mxCell id="4Zeao0PZxR2K6rH3QbGb-38" value="Add Products to cart&amp;nbsp;" style="text;html=1;strokeColor=none;fillColor=none;align=center;verticalAlign=middle;whiteSpace=wrap;rounded=0;" vertex="1" parent="4Zeao0PZxR2K6rH3QbGb-36">
          <mxGeometry x="10" y="10.5" width="100" height="40" as="geometry"/>
        </mxCell>
        <mxCell id="4Zeao0PZxR2K6rH3QbGb-41" value="&amp;lt;&amp;lt;M&amp;gt;&amp;gt;" style="text;html=1;resizable=0;autosize=1;align=center;verticalAlign=middle;points=[];fillColor=none;strokeColor=none;rounded=0;" vertex="1" parent="1">
          <mxGeometry x="170" y="-30.000000000000018" width="50" height="20" as="geometry"/>
        </mxCell>
        <mxCell id="4Zeao0PZxR2K6rH3QbGb-42" value="&amp;lt;&amp;lt;Q&amp;gt;&amp;gt;" style="text;html=1;resizable=0;autosize=1;align=center;verticalAlign=middle;points=[];fillColor=none;strokeColor=none;rounded=0;" vertex="1" parent="1">
          <mxGeometry x="170" y="49.999999999999986" width="50" height="20" as="geometry"/>
        </mxCell>
        <mxCell id="4Zeao0PZxR2K6rH3QbGb-43" value="&amp;lt;&amp;lt;M&amp;gt;&amp;gt;" style="text;html=1;resizable=0;autosize=1;align=center;verticalAlign=middle;points=[];fillColor=none;strokeColor=none;rounded=0;" vertex="1" parent="1">
          <mxGeometry x="170" y="292.07" width="50" height="20" as="geometry"/>
        </mxCell>
        <mxCell id="4Zeao0PZxR2K6rH3QbGb-44" value="&amp;lt;&amp;lt;Q&amp;gt;&amp;gt;" style="text;html=1;resizable=0;autosize=1;align=center;verticalAlign=middle;points=[];fillColor=none;strokeColor=none;rounded=0;" vertex="1" parent="1">
          <mxGeometry x="170" y="209.99999999999997" width="50" height="20" as="geometry"/>
        </mxCell>
        <mxCell id="4Zeao0PZxR2K6rH3QbGb-45" value="&amp;lt;&amp;lt;Q&amp;gt;&amp;gt;" style="text;html=1;resizable=0;autosize=1;align=center;verticalAlign=middle;points=[];fillColor=none;strokeColor=none;rounded=0;" vertex="1" parent="1">
          <mxGeometry x="170" y="127.49999999999999" width="50" height="20" as="geometry"/>
        </mxCell>
        <mxCell id="4Zeao0PZxR2K6rH3QbGb-46" value="&amp;lt;&amp;lt;M&amp;gt;&amp;gt;" style="text;html=1;resizable=0;autosize=1;align=center;verticalAlign=middle;points=[];fillColor=none;strokeColor=none;rounded=0;" vertex="1" parent="1">
          <mxGeometry x="170" y="515" width="50" height="20" as="geometry"/>
        </mxCell>
        <mxCell id="4Zeao0PZxR2K6rH3QbGb-47" value="&amp;lt;&amp;lt;M&amp;gt;&amp;gt;" style="text;html=1;resizable=0;autosize=1;align=center;verticalAlign=middle;points=[];fillColor=none;strokeColor=none;rounded=0;" vertex="1" parent="1">
          <mxGeometry x="170" y="431.03" width="50" height="20" as="geometry"/>
        </mxCell>
        <mxCell id="4Zeao0PZxR2K6rH3QbGb-48" value="&amp;lt;&amp;lt;M&amp;gt;&amp;gt;" style="text;html=1;resizable=0;autosize=1;align=center;verticalAlign=middle;points=[];fillColor=none;strokeColor=none;rounded=0;" vertex="1" parent="1">
          <mxGeometry x="170" y="357.5" width="50" height="20" as="geometry"/>
        </mxCell>
        <mxCell id="4Zeao0PZxR2K6rH3QbGb-49" value="&amp;lt;&amp;lt;M&amp;gt;&amp;gt;" style="text;html=1;resizable=0;autosize=1;align=center;verticalAlign=middle;points=[];fillColor=none;strokeColor=none;rounded=0;" vertex="1" parent="1">
          <mxGeometry x="170" y="670" width="50" height="20" as="geometry"/>
        </mxCell>
        <mxCell id="4Zeao0PZxR2K6rH3QbGb-50" value="&amp;lt;&amp;lt;Q&amp;gt;&amp;gt;" style="text;html=1;resizable=0;autosize=1;align=center;verticalAlign=middle;points=[];fillColor=none;strokeColor=none;rounded=0;" vertex="1" parent="1">
          <mxGeometry x="170" y="760" width="50" height="20" as="geometry"/>
        </mxCell>
        <mxCell id="4Zeao0PZxR2K6rH3QbGb-51" value="&amp;lt;&amp;lt;M&amp;gt;&amp;gt;" style="text;html=1;resizable=0;autosize=1;align=center;verticalAlign=middle;points=[];fillColor=none;strokeColor=none;rounded=0;" vertex="1" parent="1">
          <mxGeometry x="170" y="840" width="50" height="20" as="geometry"/>
        </mxCell>
        <mxCell id="4Zeao0PZxR2K6rH3QbGb-52" value="&amp;lt;&amp;lt;Q&amp;gt;&amp;gt;" style="text;html=1;resizable=0;autosize=1;align=center;verticalAlign=middle;points=[];fillColor=none;strokeColor=none;rounded=0;" vertex="1" parent="1">
          <mxGeometry x="170" y="590" width="50" height="20" as="geometry"/>
        </mxCell>
        <mxCell id="4Zeao0PZxR2K6rH3QbGb-54" value="&amp;lt;&amp;lt;M&amp;gt;&amp;gt;" style="text;html=1;resizable=0;autosize=1;align=center;verticalAlign=middle;points=[];fillColor=none;strokeColor=none;rounded=0;" vertex="1" parent="1">
          <mxGeometry x="350" y="290" width="50" height="20" as="geometry"/>
        </mxCell>
        <mxCell id="4Zeao0PZxR2K6rH3QbGb-57" value="&amp;lt;&amp;lt;M&amp;gt;&amp;gt;" style="text;html=1;resizable=0;autosize=1;align=center;verticalAlign=middle;points=[];fillColor=none;strokeColor=none;rounded=0;" vertex="1" parent="1">
          <mxGeometry x="350" y="357.5" width="50" height="20" as="geometry"/>
        </mxCell>
      </root>
    </mxGraphModel>
  </diagram>
</mxfile>
